<?xml version="1.0" encoding="UTF-8"?>
<svg width="170px" height="170px" viewBox="0 0 170 170" version="1.1" xmlns="http://www.w3.org/2000/svg" xmlns:xlink="http://www.w3.org/1999/xlink">
    <!-- Generator: Sketch 42 (36781) - http://www.bohemiancoding.com/sketch -->
    <title>instagram-logo</title>
    <desc>Created with Sketch.</desc>
    <defs></defs>
    <g id="Page-1" stroke="none" stroke-width="1" fill="none" fill-rule="evenodd">
        <g id="Artboard" transform="translate(-7.000000, -10.000000)" fill="#FFFFFF">
            <g id="instagram-logo" transform="translate(7.000000, 10.000000)">
                <g id="Group">
                    <path d="M122.406,0 C148.133,0 169.063,20.93 169.062,46.655 L169.062,122.407 C169.062,148.132 148.133,169.062 122.406,169.062 L46.654,169.062 C20.929,169.062 0,148.133 0,122.407 L0,46.655 C0,20.93 20.929,0 46.654,0 L122.406,0 Z M84.531,40.97 C60.51,40.97 40.968,60.512 40.968,84.533 C40.968,108.553 60.51,128.094 84.531,128.094 C108.552,128.094 128.094,108.553 128.094,84.533 C128.094,60.512 108.552,40.97 84.531,40.97 Z M129.921,28.251 C127.031,28.251 124.192,29.421 122.151,31.471 C120.1,33.511 118.921,36.351 118.921,39.251 C118.921,42.142 120.101,44.981 122.151,47.031 C124.191,49.071 127.031,50.251 129.921,50.251 C132.821,50.251 135.651,49.071 137.701,47.031 C139.751,44.981 140.921,42.141 140.921,39.251 C140.921,36.351 139.751,33.511 137.701,31.471 C135.661,29.421 132.821,28.251 129.921,28.251 Z" id="Combined-Shape" fill-rule="nonzero"></path>
                    <path d="M84.531,113.093 C68.782,113.093 55.968,100.281 55.968,84.532 C55.968,68.782 68.781,55.969 84.531,55.969 C100.281,55.969 113.094,68.782 113.094,84.532 C113.094,100.281 100.28,113.093 84.531,113.093 Z" id="Shape"></path>
                </g>
            </g>
        </g>
    </g>
</svg>