<?xml version="1.0" encoding="UTF-8"?>
<svg width="318px" height="219px" viewBox="0 0 318 219" version="1.1" xmlns="http://www.w3.org/2000/svg" xmlns:xlink="http://www.w3.org/1999/xlink">
    <!-- Generator: Sketch 42 (36781) - http://www.bohemiancoding.com/sketch -->
    <title>Artboard</title>
    <desc>Created with Sketch.</desc>
    <defs></defs>
    <g id="Page-1" stroke="none" stroke-width="1" fill="none" fill-rule="evenodd">
        <g id="Artboard" fill-rule="nonzero" fill="#FFFFFF">
            <g id="yt_icon_black" transform="translate(6.000000, -1.000000)">
                <g id="Layer_1">
                    <g id="XMLID_822_">
                        <path d="M297.917,19.645 C286.727,6.343 266.067,0.917 226.611,0.917 L83.386,0.917 C43.027,0.917 22.017,6.693 10.869,20.855 C0,34.663 0,55.008 0,83.166 L0,136.835 C0,191.386 12.896,219.083 83.386,219.083 L226.612,219.083 C260.828,219.083 279.788,214.295 292.054,202.556 C304.633,190.518 310,170.863 310,136.835 L310,83.166 C310,53.471 309.159,33.006 297.917,19.645 Z M199.021,117.41 L133.983,151.401 C132.529,152.161 130.939,152.538 129.351,152.538 C127.553,152.538 125.759,152.054 124.17,151.092 C121.178,149.279 119.351,146.036 119.351,142.538 L119.351,74.774 C119.351,71.282 121.173,68.042 124.159,66.228 C127.146,64.414 130.861,64.29 133.96,65.9 L198.998,99.672 C202.307,101.39 204.385,104.806 204.39,108.533 C204.394,112.263 202.325,115.684 199.021,117.41 Z" id="XMLID_823_"></path>
                    </g>
                </g>
            </g>
        </g>
    </g>
</svg>